HIERARCHY
ROOT Hips
{
	OFFSET -0.001795 -0.223333 0.028219
	CHANNELS 6 Xposition Yposition Zposition Zrotation Yrotation Xrotation 
	JOINT LeftUpLeg
	{
		OFFSET 0.069520 -0.091406 -0.006815
		CHANNELS 3 Zrotation Yrotation Xrotation
		JOINT LeftLeg
		{
			OFFSET 0.034277 -0.375199 -0.004496
			CHANNELS 3 Zrotation Yrotation Xrotation
			JOINT LeftFoot
			{
				OFFSET -0.013596 -0.397961 -0.043693
				CHANNELS 3 Zrotation Yrotation Xrotation
				JOINT LeftToe
				{
					OFFSET 0.026358 -0.055791 0.119288
					CHANNELS 3 Zrotation Yrotation Xrotation
					End Site
					{
						OFFSET 0.000000 0.000000 0.000000
					}
				}
			}
		}
	}
	JOINT RightUpLeg
	{
		OFFSET -0.067670 -0.090522 -0.004320
		CHANNELS 3 Zrotation Yrotation Xrotation
		JOINT RightLeg
		{
			OFFSET -0.038290 -0.382569 -0.008850
			CHANNELS 3 Zrotation Yrotation Xrotation
			JOINT RightFoot
			{
				OFFSET 0.015774 -0.398415 -0.042312
				CHANNELS 3 Zrotation Yrotation Xrotation
				JOINT RightToe
				{
					OFFSET -0.025372 -0.048144 0.123348
					CHANNELS 3 Zrotation Yrotation Xrotation
					End Site
					{
						OFFSET 0.000000 0.000000 0.000000
					}
				}
			}
		}
	}
	JOINT Spine
	{
		OFFSET -0.002533 0.108963 -0.026696
		CHANNELS 3 Zrotation Yrotation Xrotation
		JOINT Spine1
		{
			OFFSET 0.005487 0.135180 0.001092
			CHANNELS 3 Zrotation Yrotation Xrotation
			JOINT Spine2
			{
				OFFSET 0.001457 0.052922 0.025425
				CHANNELS 3 Zrotation Yrotation Xrotation
				JOINT Neck
				{
					OFFSET -0.002778 0.213870 -0.042857
					CHANNELS 3 Zrotation Yrotation Xrotation
					JOINT Head
					{
						OFFSET 0.005152 0.064970 0.051349
						CHANNELS 3 Zrotation Yrotation Xrotation
						End Site
						{
							OFFSET 0.000000 0.000000 0.000000
						}
					}
				}
				JOINT LeftShoulder
				{
					OFFSET 0.078845 0.121749 -0.034090
					CHANNELS 3 Zrotation Yrotation Xrotation
					JOINT LeftArm
					{
						OFFSET 0.090977 0.030469 -0.008868
						CHANNELS 3 Zrotation Yrotation Xrotation
						JOINT LeftForeArm
						{
							OFFSET 0.259612 -0.012772 -0.027456
							CHANNELS 3 Zrotation Yrotation Xrotation
							JOINT LeftHand
							{
								OFFSET 0.249234 0.008986 -0.001171
								CHANNELS 3 Zrotation Yrotation Xrotation
								End Site
								{
									OFFSET 0.000000 0.000000 0.000000
								}
							}
						}
					}
				}
				JOINT RightShoulder
				{
					OFFSET -0.081759 0.118833 -0.038615
					CHANNELS 3 Zrotation Yrotation Xrotation
					JOINT RightArm
					{
						OFFSET -0.096012 0.032551 -0.009143
						CHANNELS 3 Zrotation Yrotation Xrotation
						JOINT RightForeArm
						{
							OFFSET -0.253742 -0.013329 -0.021401
							CHANNELS 3 Zrotation Yrotation Xrotation
							JOINT RightHand
							{
								OFFSET -0.255298 0.007772 -0.005559
								CHANNELS 3 Zrotation Yrotation Xrotation
								End Site
								{
									OFFSET 0.000000 0.000000 0.000000
								}
							}
						}
					}
				}
			}
		}
	}
}
MOTION
Frames: 6
Frame Time: 0.050000
0.000000 0.935223 0.000000 1.610480 -8.086635 10.187296 3.654103 -0.730052 -12.123007 -1.527855 0.195820 -0.455504 -8.720299 -13.813706 7.440611 0.000000 0.000000 0.000000 -4.444768 1.204167 -13.824411 -3.712103 0.499877 2.237893 0.800929 -1.992395 6.532526 0.000000 0.000000 0.000000 5.708299 -1.167949 11.207183 -1.886303 0.895402 -0.343650 2.865515 5.390142 5.544741 9.142073 -3.768882 -19.209654 0.000000 0.000000 0.000000 -24.113504 -14.216973 6.122445 -47.194709 -9.202772 -2.037815 -64.678626 -70.683483 52.124497 0.000000 0.000000 0.000000 11.547465 23.615569 10.383058 13.132318 25.539020 0.185408 -14.082367 55.798049 -5.105037 0.000000 0.000000 0.000000 
-0.000620 0.935275 0.002444 1.567545 -8.058767 11.525158 4.209445 -0.696409 -12.097190 -2.339782 0.320850 -2.832502 -8.947107 -13.649648 8.426269 0.000000 0.000000 0.000000 -4.347229 1.302070 -14.841931 -3.872400 0.478371 1.756051 0.790942 -2.160198 6.810135 0.000000 0.000000 0.000000 6.490072 -1.186587 9.746192 -1.481443 0.718157 0.151408 2.692457 4.810383 4.913562 11.137986 -5.174477 -17.871055 0.000000 0.000000 0.000000 -28.296898 -12.520322 5.424514 -42.157486 -7.106147 -2.559144 -77.501136 -70.589236 63.328044 0.000000 0.000000 0.000000 10.567375 23.238358 9.946129 11.332795 25.203449 -0.061906 -8.046127 55.345116 -2.029191 0.000000 0.000000 0.000000 
-0.000967 0.935523 0.004198 1.817116 -7.169122 11.246031 4.089394 -0.711369 -11.885327 -2.516218 0.333534 -2.758613 -9.451822 -14.321989 8.723155 0.000000 0.000000 0.000000 -4.327657 1.261885 -14.574417 -4.244752 0.571532 2.329280 0.360858 -2.895873 6.585483 0.000000 0.000000 0.000000 6.773325 -1.181668 9.228303 -1.693220 0.808690 -0.027201 2.929734 4.176347 4.734587 10.900437 -5.569723 -15.201260 0.000000 0.000000 0.000000 -28.077160 -12.367731 5.409059 -41.887046 -6.214686 -2.858847 -74.888906 -69.735259 60.246090 0.000000 0.000000 0.000000 12.079664 23.547508 10.270564 8.852018 24.016906 -0.412117 -4.505514 54.809991 -0.284790 0.000000 0.000000 0.000000 
-0.001338 0.934983 0.005474 2.114754 -6.325150 12.372888 4.324428 -0.765501 -13.023716 -3.311885 0.406768 -3.090016 -9.939132 -14.770356 9.343005 0.000000 0.000000 0.000000 -5.238427 1.321613 -16.272858 -3.168934 0.545237 3.604766 -0.199847 -3.895583 6.294338 0.000000 0.000000 0.000000 7.309533 -1.210488 8.436735 -2.149899 1.006039 -0.433267 3.016024 3.445753 5.115892 12.056977 -6.116283 -16.157791 0.000000 0.000000 0.000000 -27.846174 -12.075674 5.391625 -42.156768 -5.105847 -3.291657 -79.542634 -70.105808 64.924110 0.000000 0.000000 0.000000 12.639633 22.891616 9.967790 6.698445 22.379323 -0.696262 -5.112992 57.328225 -0.671649 0.000000 0.000000 0.000000 
-0.001758 0.934193 0.006296 2.448714 -5.914120 12.165917 3.940603 -0.807124 -13.046677 -3.204653 0.391647 -2.715773 -10.092441 -15.158100 9.130897 0.000000 0.000000 0.000000 -5.436737 1.266249 -15.864714 -3.362023 0.563350 3.506041 -0.459888 -4.238558 5.879375 0.000000 0.000000 0.000000 7.698292 -1.317701 9.063614 -2.428130 1.121774 -0.930445 2.892731 3.111997 5.455572 11.494144 -5.903468 -15.659308 0.000000 0.000000 0.000000 -27.127086 -12.296344 5.565961 -42.449814 -4.990300 -3.387391 -75.633275 -71.064135 62.363711 0.000000 0.000000 0.000000 13.151040 22.210181 9.673308 5.307025 21.658561 -0.847548 -5.732883 59.373169 -1.081143 0.000000 0.000000 0.000000 
-0.002286 0.934128 0.006650 2.782005 -5.569495 12.690901 3.484301 -0.890147 -13.711931 -2.908216 0.359890 -2.666520 -10.282538 -15.343547 9.354152 0.000000 0.000000 0.000000 -6.064148 1.252088 -16.387530 -2.842188 0.502480 3.554320 -0.671993 -4.661154 5.854061 0.000000 0.000000 0.000000 7.954621 -1.405030 9.406543 -2.246873 1.038864 -0.886008 2.529764 3.479031 5.017284 11.048034 -5.457232 -16.132669 0.000000 0.000000 0.000000 -27.443560 -12.882722 5.708679 -42.152755 -4.860872 -3.293252 -73.296546 -70.991898 59.979012 0.000000 0.000000 0.000000 12.733151 22.280362 9.808470 3.955033 20.473264 -0.962417 -8.302488 60.629224 -2.477635 0.000000 0.000000 0.000000 
